PathFileType	4	(X/Y/Z)	/Users/itak/Documents/Research/Walk-IL/dataset/trc/00031_00004.trc
DataRate	CameraRate	NumFrames	NumMarkers	Units	OrigDataRate	OrigDataStartFrame	OrigNumFrames
100.000000	100.000000	4	53	mm	100.000000	382	764
Frame#	Time	RPSI			LPSI			L3			STRN			T10			C7			CLAV			RBAK			LBAK			LSHO			LUPA			LAEL			LAOL			LWTS			LWPS			LFRA			LIFD			LHPS			LHTS			RSHO			RUPA			RAEL			RAOL			RWTS			RWPS			RFRA			RIFD			RHTS			RHPS			RBHD			LFHD			RFHD			LBHD			LHIP			RHIP			RASI			LASI			LKNE			LTHI			LANK			LTIP			LTOE			LMT1			LMT5			LHEE			RKNE			RTHI			RANK			RTIP			RTOE			RMT1			RMT5			RHEE			
		X1	Y1	Z1	X2	Y2	Z2	X3	Y3	Z3	X4	Y4	Z4	X5	Y5	Z5	X6	Y6	Z6	X7	Y7	Z7	X8	Y8	Z8	X9	Y9	Z9	X10	Y10	Z10	X11	Y11	Z11	X12	Y12	Z12	X13	Y13	Z13	X14	Y14	Z14	X15	Y15	Z15	X16	Y16	Z16	X17	Y17	Z17	X18	Y18	Z18	X19	Y19	Z19	X20	Y20	Z20	X21	Y21	Z21	X22	Y22	Z22	X23	Y23	Z23	X24	Y24	Z24	X25	Y25	Z25	X26	Y26	Z26	X27	Y27	Z27	X28	Y28	Z28	X29	Y29	Z29	X30	Y30	Z30	X31	Y31	Z31	X32	Y32	Z32	X33	Y33	Z33	X34	Y34	Z34	X35	Y35	Z35	X36	Y36	Z36	X37	Y37	Z37	X38	Y38	Z38	X39	Y39	Z39	X40	Y40	Z40	X41	Y41	Z41	X42	Y42	Z42	X43	Y43	Z43	X44	Y44	Z44	X45	Y45	Z45	X46	Y46	Z46	X47	Y47	Z47	X48	Y48	Z48	X49	Y49	Z49	X50	Y50	Z50	X51	Y51	Z51	X52	Y52	Z52	X53	Y53	Z53	

383	3.82	377.7248229980469	1032.361083984375	-536.9583129882812	404.8270874023438	1042.127563476562	-696.4172973632812	388.3919372558594	1105.794189453125	-627.6803588867188	608.7063598632812	1282.066772460938	-542.4457397460938	376.4553527832031	1250.528198242188	-642.07763671875	442.9976196289062	1514.401245117188	-619.3975219726562	576.0514526367188	1410.085571289062	-554.2656860351562	350.1462707519531	1378.980224609375	-579.7863159179688	464.8839111328125	1480.70166015625	-718.7994995117188	587.3923950195312	1484.61083984375	-737.5324096679688	606.080078125	1382.39501953125	-841.5487060546875	658.915771484375	1187.81982421875	-915.5846557617188	575.1585083007812	1141.817626953125	-870.8604125976562	788.5338134765625	958.7235107421875	-850.9449462890625	755.7469482421875	939.4176025390625	-931.5264892578125	710.22412109375	1084.99560546875	-930.7471923828125	869.6557006835938	790.2367553710938	-841.2409057617188	814.6575317382812	864.0550537109375	-921.2077026367188	846.0807495117188	881.6243896484375	-859.5009765625	436.2528991699219	1481.198120117188	-430.4722290039062	384.2865600585938	1414.094970703125	-381.7902221679688	289.6051635742188	1164.725341796875	-405.3602294921875	340.0625305175781	1134.826904296875	-488.2398986816406	356.8193969726562	881.217041015625	-392.7417602539062	266.7521362304688	883.0692138671875	-371.4237060546875	275.4516296386719	1088.609375	-392.7564697265625	341.6296997070312	696.007568359375	-422.4877014160156	373.0249633789062	769.065185546875	-365.2341613769531	281.3174133300781	774.77099609375	-366.3177795410156	593.9171142578125	1692.140258789062	-597.781005859375	599.0064697265625	1636.886840820312	-386.1202087402344	677.686279296875	1643.37158203125	-444.857666015625	478.7654113769531	1680.204956054688	-509.088623046875	517.2425537109375	950.6474609375	-788.6542358398438	473.6026306152344	913.5252685546875	-418.6238098144531	582.7696533203125	957.7335815429688	-471.4731750488281	624.8558959960938	984.5715942382812	-701.0806884765625	503.655517578125	509.6313781738281	-783.1063842773438	501.1527709960938	648.5037231445312	-801.7027587890625	329.7781066894531	38.79717636108398	-834.8054809570312	386.4292297363281	289.5256958007812	-829.7279052734375	535.44189453125	36.03812789916992	-731.70849609375	474.791015625	46.98484039306641	-728.9315185546875	455.231201171875	29.31815910339355	-837.2748413085938	254.2259979248047	55.5924072265625	-796.3406372070312	667.4575805664062	531.4135131835938	-409.9851989746094	534.89697265625	768.8748168945312	-401.3052368164062	735.7589721679688	43.56101608276367	-490.9772033691406	688.4088134765625	405.2656860351562	-420.5926818847656	937.34423828125	107.283317565918	-399.3501892089844	903.8408813476562	96.22168731689453	-457.4515075683594	838.291748046875	76.42030334472656	-389.9407043457031	716.8545532226562	37.93910217285156	-558.4549560546875	
384	3.83	385.1277770996094	1030.462280273438	-534.4774780273438	412.7212524414062	1040.531860351562	-693.8434448242188	396.2604370117188	1104.15087890625	-625.0285034179688	615.9755249023438	1280.338989257812	-538.3787841796875	384.2576904296875	1248.822631835938	-639.4012451171875	450.4818115234375	1512.66748046875	-615.7003173828125	583.2752075195312	1408.359985351562	-550.0279541015625	357.6827392578125	1377.06103515625	-576.9478759765625	473.0395812988281	1479.300537109375	-715.111083984375	595.7530517578125	1483.291381835938	-733.06884765625	615.1449584960938	1381.220581054688	-837.0674438476562	668.6817626953125	1186.7802734375	-911.013916015625	584.6048583984375	1140.635375976562	-867.0205688476562	798.0833740234375	958.01025390625	-844.9387817382812	766.114501953125	938.5338134765625	-925.8074340820312	720.3512573242188	1084.098388671875	-925.630126953125	879.4622802734375	789.727783203125	-834.2338256835938	825.046875	863.302001953125	-914.8003540039062	855.8670043945312	881.0315551757812	-852.8157958984375	442.5557861328125	1479.013671875	-426.8907165527344	390.3438415527344	1411.700073242188	-378.74267578125	296.1245727539062	1162.288208007812	-403.7113342285156	347.0973205566406	1132.6455078125	-486.3409118652344	363.7928466796875	878.8867797851562	-391.2456665039062	273.5014953613281	880.4937744140625	-370.5975341796875	281.9995422363281	1086.068603515625	-391.3949584960938	349.0723266601562	693.7177734375	-421.6592407226562	380.2839965820312	767.063720703125	-363.8163757324219	288.2337036132812	772.1864013671875	-365.7113342285156	601.2103881835938	1690.3974609375	-592.8782958984375	604.2639770507812	1635.151123046875	-381.2788696289062	683.5865478515625	1641.696044921875	-439.197998046875	485.2570190429688	1678.322875976562	-505.2350158691406	525.249267578125	949.3303833007812	-785.990234375	481.31103515625	911.5489501953125	-416.1965942382812	590.7791748046875	955.9702758789062	-468.72607421875	633.0415649414062	983.1495361328125	-698.3154907226562	508.1206665039062	508.7320556640625	-781.5616455078125	506.7899169921875	647.7282104492188	-799.7114868164062	330.0123901367188	39.71025085449219	-834.6940307617188	388.6748962402344	289.8898620605469	-828.8596801757812	535.5303344726562	35.94323348999023	-731.6487426757812	475.0011291503906	47.02894973754883	-728.921875	455.3886108398438	29.33210372924805	-837.1900024414062	254.4541320800781	56.86360549926758	-796.2753295898438	673.2888793945312	529.5906982421875	-406.739013671875	542.0901489257812	766.8101806640625	-399.0045776367188	755.0762329101562	43.04762268066406	-478.012451171875	695.7891845703125	404.3242492675781	-415.1659545898438	951.4490966796875	113.0437698364258	-379.5692749023438	920.5355834960938	100.2399063110352	-438.8582763671875	852.8519287109375	79.88964080810547	-373.7178039550781	738.7672729492188	36.05060195922852	-546.0050048828125	
385	3.84	392.6274719238281	1028.605224609375	-531.7330322265625	420.7283325195312	1038.958129882812	-691.0037231445312	404.2315063476562	1102.526123046875	-622.1160278320312	623.3192138671875	1278.646728515625	-534.170166015625	392.1022033691406	1247.129760742188	-636.45947265625	457.9686279296875	1510.96240234375	-611.7509765625	590.5436401367188	1406.65625	-545.6111450195312	365.2715454101562	1375.14013671875	-573.8309326171875	481.1385498046875	1477.94287109375	-711.1723022460938	604.0502319335938	1482.016967773438	-728.4225463867188	624.0634155273438	1380.071655273438	-832.4142456054688	678.19677734375	1185.71630859375	-906.2488403320312	593.7650146484375	1139.486694335938	-862.9409790039062	807.2216796875	957.1695556640625	-838.8175048828125	776.0029296875	937.5458984375	-919.9545288085938	730.119384765625	1083.111328125	-920.3373413085938	888.6934204101562	789.0353393554688	-827.1686401367188	834.8875732421875	862.3904418945312	-908.2845458984375	865.1444091796875	880.2357177734375	-846.0407104492188	448.9464111328125	1476.813232421875	-423.0679626464844	396.5358276367188	1409.278564453125	-375.4304809570312	302.8147583007812	1159.807006835938	-401.765625	354.2811279296875	1130.438842773438	-484.1749572753906	371.0217895507812	876.531005859375	-389.4927368164062	280.5248718261719	877.8721313476562	-369.4891662597656	288.7676696777344	1083.485595703125	-389.7398376464844	356.8560485839844	691.3994140625	-420.5295715332031	387.0526123046875	764.965087890625	-362.8165893554688	295.4617309570312	769.5700073242188	-364.8117065429688	608.5091552734375	1688.696533203125	-587.7442016601562	609.5839233398438	1633.411010742188	-376.2180480957031	689.5155639648438	1640.030517578125	-433.3404235839844	491.7875366210938	1676.461791992188	-501.1406555175781	533.2362060546875	948.03857421875	-783.1438598632812	489.1982116699219	909.6233520507812	-413.5424194335938	598.927734375	954.2158203125	-465.8257141113281	641.2821044921875	981.76171875	-695.4127197265625	512.83984375	507.8794555664062	-779.9596557617188	512.6124877929688	647.0150146484375	-797.6445922851562	330.3057861328125	40.77286529541016	-834.634033203125	391.1440124511719	290.330078125	-827.9736938476562	535.6195068359375	35.83805084228516	-731.5856323242188	475.2106628417969	47.11187362670898	-728.9168090820312	455.54833984375	29.34033584594727	-837.088623046875	254.7354583740234	58.33234024047852	-796.2804565429688	679.1967163085938	527.80419921875	-403.2781372070312	549.5032958984375	764.8365478515625	-396.5349731445312	772.8176879882812	42.76320266723633	-465.3551025390625	702.9392700195312	403.3325805664062	-409.6319274902344	963.87060546875	118.4202270507812	-360.2303161621094	935.5702514648438	104.0750427246094	-420.6441955566406	865.7850341796875	83.15100860595703	-357.9423522949219	759.1222534179688	34.55614852905273	-533.7839965820312	
386	3.85	400.2433776855469	1026.812744140625	-528.7323608398438	428.865234375	1037.430053710938	-687.904296875	412.3191528320312	1100.938354492188	-618.9522705078125	630.742431640625	1277.013427734375	-529.8086547851562	400.0011901855469	1245.471801757812	-633.25390625	465.4674072265625	1509.307739257812	-607.5503540039062	597.862548828125	1404.997314453125	-541.0074462890625	372.9192199707031	1373.239135742188	-570.4393310546875	489.1919555664062	1476.6484375	-706.9830322265625	612.2922973632812	1480.803100585938	-723.5865478515625	632.8488159179688	1378.967407226562	-827.5857543945312	687.462646484375	1184.649169921875	-901.291748046875	602.6258544921875	1138.394897460938	-858.6273803710938	815.9465942382812	956.2139892578125	-832.5908203125	785.4116821289062	936.4745483398438	-913.9852905273438	739.52783203125	1082.05224609375	-914.8748779296875	897.3640747070312	788.1923217773438	-820.071044921875	844.181640625	861.3367919921875	-901.679443359375	873.914794921875	879.2539672851562	-839.1937255859375	455.430908203125	1474.622802734375	-419.0043334960938	402.8658447265625	1406.856689453125	-371.8534545898438	309.68603515625	1157.30419921875	-399.5191345214844	361.6292419433594	1128.230590820312	-481.7340698242188	378.5015258789062	874.1712646484375	-387.4792785644531	287.8214416503906	875.2310791015625	-368.0877990722656	295.7623901367188	1080.886596679688	-387.7859497070312	364.9695129394531	689.0760498046875	-419.0964965820312	393.3517150878906	762.770751953125	-362.195068359375	302.9964599609375	766.947509765625	-363.6100463867188	615.81982421875	1687.064086914062	-582.3773803710938	614.9679565429688	1631.686645507812	-370.9342956542969	695.4755249023438	1638.3984375	-427.2818908691406	498.3609008789062	1674.64599609375	-496.8060302734375	541.2408447265625	946.7901611328125	-780.1024780273438	497.2376708984375	907.7840576171875	-410.6503295898438	607.1931762695312	952.4929809570312	-462.7448120117188	649.5906372070312	980.4232177734375	-692.33984375	517.8246459960938	507.0851745605469	-778.292236328125	518.6443481445312	646.373779296875	-795.4859619140625	330.666015625	42.0010986328125	-834.634033203125	393.8485107421875	290.8618469238281	-827.073486328125	535.7168579101562	35.73198699951172	-731.5222778320312	475.4220886230469	47.23652648925781	-728.9160766601562	455.71337890625	29.33963012695312	-836.9683837890625	255.0811157226562	60.02151489257812	-796.3654174804688	685.2037353515625	526.1015625	-399.5571899414062	557.115234375	763.0076904296875	-393.8466491699219	788.89306640625	42.58896255493164	-453.1704406738281	709.9095458984375	402.3015441894531	-403.9943237304688	974.6838989257812	123.2057952880859	-341.6645812988281	948.947265625	107.5444946289062	-403.110107421875	877.1453857421875	86.04519653320312	-342.8490600585938	777.7531127929688	33.34600448608398	-521.9515380859375	
